<svg width="150px" height="150px" viewBox="0 0 301 298" fill="none" xmlns="http://www.w3.org/2000/svg">
<path d="M125.364 84.0929C-43.8867 127.703 -26.1658 188.648 173.247 217.995C61.1724 188.556 -29.1476 159.091 125.364 84.0929Z" fill="white" stroke="black"/>
<path d="M108.667 97.4244C424.791 101.027 260.073 227.21 132.103 203.142C268.083 188.973 283.602 113.376 108.667 97.4244Z" fill="white" stroke="black"/>
<path d="M73.0682 143.83L78.3728 143.857L83.9103 157.57L84.1427 157.571L89.8297 143.913L95.1753 143.94L95.0742 164.311L90.8497 164.29L90.9155 151.028L90.7651 151.028L85.4088 164.167L82.5514 164.153L77.3807 150.934L77.2029 150.933L77.137 164.222L72.9671 164.201L73.0682 143.83ZM98.6152 164.328L98.7163 143.958L112.443 144.026L112.425 147.58L102.992 147.533L102.968 152.319L111.677 152.362L111.659 155.848L102.951 155.805L102.926 160.795L112.387 160.842L112.369 164.397L98.6152 164.328ZM115.76 164.413L115.861 144.043L120.154 144.064L120.07 160.88L128.806 160.923L128.789 164.478L115.76 164.413ZM131.673 164.492L131.775 144.122L136.067 144.143L136.023 153.125L136.283 153.126L143.669 144.181L148.823 144.206L141.231 153.288L148.818 164.578L143.65 164.552L138.127 156.157L135.995 158.731L135.966 164.514L131.673 164.492ZM154.505 164.606L149.884 164.583L157.026 144.247L162.563 144.274L169.489 164.68L164.882 164.657L163.387 160.001L156.032 159.965L154.505 164.606ZM157.143 156.607L162.31 156.633L159.847 148.909L159.683 148.909L157.143 156.607ZM174.875 164.967C174.2 164.963 173.632 164.733 173.169 164.275C172.707 163.807 172.477 163.241 172.48 162.576C172.484 161.901 172.719 161.337 173.186 160.884C173.653 160.431 174.224 160.206 174.898 160.209C175.573 160.212 176.141 160.443 176.604 160.901C177.066 161.359 177.296 161.925 177.293 162.6C177.289 163.265 177.054 163.829 176.587 164.292C176.12 164.745 175.549 164.97 174.875 164.967ZM184.884 164.757L180.263 164.734L187.405 144.398L192.942 144.425L199.868 164.831L195.261 164.808L193.766 160.152L186.411 160.116L184.884 164.757ZM187.521 156.758L192.689 156.783L190.225 149.06L190.061 149.059L187.521 156.758ZM206.695 144.493L206.594 164.864L202.301 164.843L202.403 144.472L206.695 144.493Z" fill="white"/>
</svg>
